<svg enable-background="new 0 0 507.901 507.901" height="512" viewBox="0 0 507.901 507.901" width="512" xmlns="http://www.w3.org/2000/svg"><g fill="#2ba837"><path d="m473.2 278.1c1.3-8 2-16.1 2-24.1 0-81.3-66.2-147.5-147.5-147.5-53.7 0-102.1 28.5-128.3 75-13.7-6.2-28.7-9.4-43.8-9.4-56.5 0-102.9 44.2-106.3 100.4-28.5 7.3-49.3 33.4-49.3 63.4 0 36.1 29.4 65.5 65.5 65.5h376.9c36.1 0 65.5-29.4 65.5-65.5.1-24.5-13.3-46.5-34.7-57.8zm-30.7 107h-377c-27.1 0-49.2-22.1-49.2-49.2 0-46.8 49.2-50.2 49.2-50.2v-7.1c0-49.7 40.4-90.1 90.1-90.1 29.4 0 50.8 15.2 50.8 15.2s33.9-80.8 121.2-80.8c72.3 0 131.1 58.8 131.1 131.1 0 21.6-4.2 33.8-4.2 33.8s37 9.6 37 48.1c.1 27.1-21.9 49.2-49 49.2z"/><path d="m327.7 147.5v16.4c49.7 0 90.1 40.4 90.1 90.1h16.4c.1-58.7-47.7-106.5-106.5-106.5z"/></g></svg>