<?xml version="1.0"?>
<svg xmlns="http://www.w3.org/2000/svg" height="512px" viewBox="0 -62 512 511" width="512px" class=""><g transform="matrix(0.997802, 0, 0, 0.997802, 0.562608, 0.425253)"><path d="m201.394531 226.535156h-79.230469c-4.144531 0-7.5 3.359375-7.5 7.5 0 4.144532 3.355469 7.5 7.5 7.5h79.230469c4.140625 0 7.5-3.355468 7.5-7.5 0-4.140625-3.359375-7.5-7.5-7.5zm0-34.335937h-21.40625c-4.144531 0-7.5 3.355469-7.5 7.5 0 4.140625 3.355469 7.5 7.5 7.5h21.40625c4.140625 0 7.5-3.359375 7.5-7.5 0-4.144531-3.359375-7.5-7.5-7.5zm-150.109375 15h94.503906c4.140626 0 7.5-3.359375 7.5-7.5 0-4.144531-3.359374-7.5-7.5-7.5h-94.503906c-4.140625 0-7.5 3.355469-7.5 7.5 0 4.140625 3.359375 7.5 7.5 7.5zm150.109375 88.015625h-101.296875c-4.144531 0-7.5 3.355468-7.5 7.5 0 4.140625 3.355469 7.5 7.5 7.5h101.296875c4.140625 0 7.5-3.359375 7.5-7.5 0-4.144532-3.359375-7.5-7.5-7.5zm260.5625-294.714844h-12.148437c-4.140625 0-7.5 3.355469-7.5 7.5s3.359375 7.5 7.5 7.5h12.148437c19.320313 0 35.042969 15.71875 35.042969 35.042969v41.703125h-482v-41.703125c0-19.320313 15.722656-35.042969 35.042969-35.042969h364.484375c4.144531 0 7.5-3.355469 7.5-7.5s-3.355469-7.5-7.5-7.5h-364.484375c-27.59375 0-50.042969 22.449219-50.042969 50.042969v273.050781c0 4.144531 3.359375 7.5 7.5 7.5s7.5-3.355469 7.5-7.5v-216.347656h482v229.453125c0 19.320312-15.722656 35.042969-35.042969 35.042969h-411.914062c-12.421875 0-24.03125-6.675782-30.300781-17.421876-2.085938-3.578124-6.675782-4.789062-10.253907-2.703124-3.578125 2.085937-4.789062 6.679687-2.703125 10.257812 8.945313 15.339844 25.519532 24.867188 43.257813 24.867188h411.914062c27.59375 0 50.042969-22.449219 50.042969-50.042969v-286.15625c0-27.59375-22.449219-50.042969-50.042969-50.042969zm-260.5625 260.375h-44.675781c-4.140625 0-7.5 3.355469-7.5 7.5s3.359375 7.5 7.5 7.5h44.675781c4.140625 0 7.5-3.355469 7.5-7.5s-3.359375-7.5-7.5-7.5zm-150.109375-88.015625h21.40625c4.144532 0 7.5-3.355469 7.5-7.5 0-4.140625-3.355468-7.5-7.5-7.5h-21.40625c-4.140625 0-7.5 3.359375-7.5 7.5 0 4.144531 3.359375 7.5 7.5 7.5zm150.109375-15h-94.503906c-4.140625 0-7.5 3.359375-7.5 7.5 0 4.144531 3.359375 7.5 7.5 7.5h94.503906c4.140625 0 7.5-3.355469 7.5-7.5 0-4.140625-3.359375-7.5-7.5-7.5zm195.167969 125.71875c1.464844 1.464844 3.386719 2.195313 5.304688 2.195313 1.917968 0 3.839843-.730469 5.304687-2.195313l44.238281-44.238281c2.929688-2.929688 2.929688-7.675782 0-10.605469l-44.238281-44.238281c-2.929687-2.925782-7.679687-2.925782-10.605469 0-2.929687 2.929687-2.929687 7.679687 0 10.609375l38.933594 38.933593-38.933594 38.933594c-2.929687 2.925782-2.929687 7.675782-.003906 10.605469zm-48.871094 18.382813c3.304688 0 6.332032-2.207032 7.234375-5.550782l32.578125-120.839844c1.078125-4-1.289062-8.117187-5.289062-9.195312s-8.117188 1.289062-9.191406 5.289062l-32.578126 120.839844c-1.078124 4 1.289063 8.117188 5.289063 9.195313.652344.175781 1.308594.261719 1.957031.261719zm-232.546875-248.089844c0 16.28125 13.246094 29.527344 29.527344 29.527344 16.277344 0 29.523437-13.246094 29.523437-29.527344 0-16.277344-13.246093-29.523438-29.523437-29.523438-16.28125 0-29.527344 13.246094-29.527344 29.523438zm44.050781 0c0 8.011718-6.515624 14.527344-14.523437 14.527344-8.011719 0-14.527344-6.515626-14.527344-14.527344 0-8.007813 6.515625-14.523438 14.527344-14.523438 8.007813 0 14.523437 6.515625 14.523437 14.523438zm-62.558593-22.457032c-2.925781-2.925781-7.675781-2.925781-10.605469 0l-11.851562 11.851563-11.847657-11.851563c-2.929687-2.925781-7.679687-2.925781-10.609375 0-2.925781 2.933594-2.925781 7.679688 0 10.609376l11.851563 11.847656-11.851563 11.851562c-2.925781 2.929688-2.925781 7.679688 0 10.605469 1.464844 1.464844 3.386719 2.199219 5.304688 2.199219 1.917968 0 3.839844-.734375 5.300781-2.199219l11.851563-11.847656 11.851562 11.847656c1.460938 1.464844 3.382812 2.199219 5.300781 2.199219 1.921875 0 3.839844-.734375 5.304688-2.199219 2.929687-2.929687 2.929687-7.675781 0-10.605469l-11.851563-11.851562 11.851563-11.847656c2.929687-2.929688 2.929687-7.675782 0-10.609376zm-45.351563 278.800782h14.613282c4.140624 0 7.5-3.359375 7.5-7.5 0-4.144532-3.359376-7.5-7.5-7.5h-14.613282c-4.140625 0-7.5 3.355468-7.5 7.5 0 4.140625 3.359375 7.5 7.5 7.5zm278.863282-125.71875c-2.929688-2.929688-7.679688-2.929688-10.609376 0l-44.234374 44.238281c-2.929688 2.929687-2.929688 7.675781 0 10.605469l44.234374 44.238281c1.464844 1.460937 3.386719 2.195313 5.304688 2.195313s3.839844-.734376 5.304688-2.195313c2.929687-2.929687 2.929687-7.679687 0-10.609375l-38.933594-38.933594 38.933594-38.933594c2.925781-2.925781 2.925781-7.675781 0-10.605468zm-278.863282 91.378906h71.234375c4.144531 0 7.5-3.355469 7.5-7.5s-3.355469-7.5-7.5-7.5h-71.234375c-4.140625 0-7.5 3.355469-7.5 7.5s3.359375 7.5 7.5 7.5zm0-34.339844h36.679688c4.140625 0 7.5-3.355468 7.5-7.5 0-4.140625-3.359375-7.5-7.5-7.5h-36.679688c-4.140625 0-7.5 3.359375-7.5 7.5 0 4.144532 3.359375 7.5 7.5 7.5zm0 0" data-original="#000000" class="" data-old_color="#000000" fill="#2BA837"/></g> </svg>
